{"title":"Im.With.Lucy.2002.iNTERNAL.DVDRip.XviD-EXViDiNT","uid":6998266,"size":735934943,"categoryP":"video","categoryS":"movies","magnet":"?xt=urn:btih:4cfe5dbd9aa2687c18df43c99b519da5b0a54c5b&amp;dn=Im.With.Lucy.2002.iNTERNAL.DVDRip.XviD-EXViDiNT&amp;tr=udp%3A%2F%2Ftracker.openbittorrent.com%3A80&amp;tr=udp%3A%2F%2Fopen.demonii.com%3A1337&amp;tr=udp%3A%2F%2Ftracker.coppersurfer.tk%3A6969&amp;tr=udp%3A%2F%2Fexodus.desync.com%3A6969","seeders":1,"leechers":0,"uploader":"TvTeam","files":4,"time":1327964889,"description":". \n &lt;a href=&quot;\nhttp://www.torrenting.com&quot; rel=&quot;nofollow&quot; target=&quot;_NEW&quot;&gt;\nhttp://www.torrenting.com&lt;/a&gt;          :     Once &amp; For all ;)\n\n\n               www . Torrenting . Com \n\n(((((((((((((= Enjoy No RAR releases =))))))))))))))))))))\n\n\n...................................NFO:....................................\n\n.                                                                                                     \n       \n     \n     \n       \n       \n     \n     \n                                         \n                                         \n                EXVID                    \n                                         \n         \n                                         \n         Filled the Archives             \n                                         \n         \n                                         \n                With:                    \n                                         \n         \n                                         \n                                    \n     E240                           \n                                    \n     SP               (C) 2009      \n                                         \n     \n     \n     \n                                                                                  \n                                                                                   \n                Im.With.Lucy.2002.iNTERNAL.DVDRip.XviD-EXViDiNT                     \n                                                                                   \n                                                                                  \n     \n                                                                                               \nEXViD aims to iNTERNAL those releases which have been lost in the archives.\nEXViD aims to PRE non-internal releases which have poor sources and are likely skipped by others. &lt;a href=&quot;\nhttp://www.imdb.com/title/tt0282593/&quot; rel=&quot;nofollow&quot; target=&quot;_NEW&quot;&gt;\nhttp://www.imdb.com/title/tt0282593/&lt;/a&gt;\nSubtitles: None\nDate: 2012.01\n\nDirector: Jon Sherman\n\nGenres: Comedy | Romance\n\nPlot:\nIt's an hour before Lucy's wedding and her best friend wants to hear all about what led up to\nthat moment. So, Lucy tells about the five men she had blind dates with over the past year (Doug,\nGabriel, Bobby, Barry, and Luke) and her experiences with each one. As each date is told at the\nsame time as the other four, the many ups and downs of new relationships are shown. So, while\nsome dates start off terribly, but end well others are just the opposite. But which one of the\nfive men is Lucy about to walk down the aisle with?\n\nCast:\nMonica Potter\t...\tLucy\nCraig Bierko\t...\tPeter\nLinda Halaska\t...\tSaleslady\nJulianne Nicholson\t...\tJo\nFlora Martnez\t...\tMelissa\nAfemo Omilami\t...\tCab Driver #1\nJohn Hannah\t...\tDoug\nGael Garca Bernal\t...\tGabriel\nAnthony LaPaglia\t...\tBobby Staley\nJohn Tormey\t...\tTommy the Doorman\nJeff Norris\t...\tMover\nHenry Thomas\t...\tBarry\nDavid Boreanaz\t...\tLuke\nHenry Yuk\t...\tKorean Man\nHarold Ramis\t...\tJack\n\nStats:\nFormat                                   : AVI\nFormat/Info                              : Audio Video Interleave\nFile size                                : 702 MiB\nDuration                                 : 1h 25mn\nOverall bit rate mode                    : Variable\nOverall bit rate                         : 1 146 Kbps\n\nVideo\nID                                       : 0\nFormat                                   : MPEG-4 Visual\nFormat profile                           : Advanced Simple@L5\nFormat settings, BVOP                    : 2\nFormat settings, QPel                    : No\nFormat settings, GMC                     : No warppoints\nFormat settings, Matrix                  : Default (H.263)\nCodec ID                                 : XVID\nCodec ID/Hint                            : XviD\nDuration                                 : 1h 25mn\nBit rate                                 : 1 011 Kbps\nWidth                                    : 640 pixels\nHeight                                   : 336 pixels\nDisplay aspect ratio                     : 1.905\nFrame rate                               : 25.000 fps\nColor space                              : YUV\nChroma subsampling                       : 4:2:0\nBit depth                                : 8 bits\nScan type                                : Progressive\nCompression mode                         : Lossy\nBits/(Pixel*Frame)                       : 0.188\nStream size                              : 619 MiB (88%)\nWriting library                          : XviD 64\n\nAudio\nID                                       : 1\nFormat                                   : MPEG Audio\nFormat version                           : Version 1\nFormat profile                           : Layer 3\nMode                                     : Joint stereo\nCodec ID                                 : 55\nCodec ID/Hint                            : MP3\nDuration                                 : 1h 25mn\nBit rate mode                            : Variable\nBit rate                                 : 122 Kbps\nChannel(s)                               : 2 channels\nSampling rate                            : 48.0 KHz\nCompression mode                         : Lossy\nStream size                              : 74.9 MiB (11%)\nAlignment                                : Aligned on interleaves\nInterleave, duration                     : 24 ms (0.60 video frame)\nInterleave, preload duration             : 545 ms\n\n\n\nRelease notes:\nEnjoy!\n\nLooking for:\n75TB+ Archives\nDUTCH/FLEMiSH Archives\n                                                                                                    \nGreets: CRBS EPiSODE FiCO FLS iLS KLASSiGER LiPSYNC MADE NODLABS RUNNER SPRiNTER      \n   \n\n                                                                    ASCII DONE BY XX^NFO 2oo9     \n \n\nRLS-Crc: 415243414445:42EECD90","torrent":{"xt":"urn:btih:4cfe5dbd9aa2687c18df43c99b519da5b0a54c5b","amp;dn":"Im.With.Lucy.2002.iNTERNAL.DVDRip.XviD-EXViDiNT","amp;tr":["udp%3A%2F%2Ftracker.openbittorrent.com%3A80","udp%3A%2F%2Fopen.demonii.com%3A1337","udp%3A%2F%2Ftracker.coppersurfer.tk%3A6969","udp%3A%2F%2Fexodus.desync.com%3A6969"],"infoHash":"4cfe5dbd9aa2687c18df43c99b519da5b0a54c5b","infoHashBuffer":{"type":"Buffer","data":[76,254,93,189,154,162,104,124,24,223,67,201,155,81,157,165,176,165,76,91]},"announce":[],"urlList":[]}}